<?xml version="1.0" encoding="UTF-8" standalone="no"?>
<!-- Generator: Adobe Illustrator 16.0.0, SVG Export Plug-In . SVG Version: 6.00 Build 0)  -->

<svg
   xmlns:dc="http://purl.org/dc/elements/1.1/"
   xmlns:cc="http://creativecommons.org/ns#"
   xmlns:rdf="http://www.w3.org/1999/02/22-rdf-syntax-ns#"
   xmlns:svg="http://www.w3.org/2000/svg"
   xmlns="http://www.w3.org/2000/svg"
   xmlns:sodipodi="http://sodipodi.sourceforge.net/DTD/sodipodi-0.dtd"
   xmlns:inkscape="http://www.inkscape.org/namespaces/inkscape"
   version="1.1"
   id="Capa_1"
   x="0px"
   y="0px"
   width="30.646px"
   height="30.646px"
   viewBox="0 0 30.646 30.646"
   style="enable-background:new 0 0 30.646 30.646;"
   xml:space="preserve"
   sodipodi:docname="icon-damage.svg"
   inkscape:version="0.92.1 r15371"><metadata
     id="metadata43"><rdf:RDF><cc:Work
         rdf:about=""><dc:format>image/svg+xml</dc:format><dc:type
           rdf:resource="http://purl.org/dc/dcmitype/StillImage" /></cc:Work></rdf:RDF></metadata><defs
     id="defs41" /><sodipodi:namedview
     pagecolor="#ffffff"
     bordercolor="#666666"
     borderopacity="1"
     objecttolerance="10"
     gridtolerance="10"
     guidetolerance="10"
     inkscape:pageopacity="0"
     inkscape:pageshadow="2"
     inkscape:window-width="716"
     inkscape:window-height="480"
     id="namedview39"
     showgrid="false"
     inkscape:zoom="7.7008419"
     inkscape:cx="15.323"
     inkscape:cy="15.323"
     inkscape:window-x="0"
     inkscape:window-y="0"
     inkscape:window-maximized="0"
     inkscape:current-layer="Capa_1" /><g
     id="g6"
     style="fill:#ffffff"><g
       id="g4"
       style="fill:#ffffff"><path
         d="M16.458,0.584C16.197,0.218,15.773,0,15.323,0c-0.451,0-0.874,0.217-1.137,0.584c-2.808,3.919-9.843,14.227-9.843,19.082    c0,6.064,4.915,10.98,10.979,10.98c6.065,0,10.981-4.916,10.981-10.98C26.304,14.811,19.266,4.503,16.458,0.584z M11.467,25.881    c-0.3,0.357-0.732,0.542-1.167,0.542c-0.345,0-0.695-0.118-0.981-0.358c-4.329-3.646-2.835-9.031-2.769-9.26    c0.234-0.809,1.073-1.273,1.886-1.042c0.808,0.231,1.274,1.075,1.045,1.881c-0.047,0.175-0.982,3.743,1.804,6.089    C11.927,24.275,12.01,25.236,11.467,25.881z M14.464,28.91c-0.893,0-1.62-0.727-1.62-1.62c0-0.896,0.727-1.621,1.62-1.621    c0.896,0,1.62,0.726,1.62,1.621C16.084,28.185,15.359,28.91,14.464,28.91z"
         id="path2"
         style="fill:#ffffff" /></g></g><g
     id="g8" /><g
     id="g10" /><g
     id="g12" /><g
     id="g14" /><g
     id="g16" /><g
     id="g18" /><g
     id="g20" /><g
     id="g22" /><g
     id="g24" /><g
     id="g26" /><g
     id="g28" /><g
     id="g30" /><g
     id="g32" /><g
     id="g34" /><g
     id="g36" /></svg>