<?xml version="1.0" encoding="UTF-8" standalone="no"?>
<svg
   xmlns:dc="http://purl.org/dc/elements/1.1/"
   xmlns:cc="http://creativecommons.org/ns#"
   xmlns:rdf="http://www.w3.org/1999/02/22-rdf-syntax-ns#"
   xmlns:svg="http://www.w3.org/2000/svg"
   xmlns="http://www.w3.org/2000/svg"
   xmlns:sodipodi="http://sodipodi.sourceforge.net/DTD/sodipodi-0.dtd"
   xmlns:inkscape="http://www.inkscape.org/namespaces/inkscape"
   enable-background="new 0 0 500 500"
   height="390.65149"
   id="Layer_1"
   version="1.1"
   viewBox="0 0 436.10101 390.65149"
   width="436.10101"
   xml:space="preserve"
   sodipodi:docname="icon-heal.svg"
   inkscape:version="0.92.1 r15371"><metadata
     id="metadata9"><rdf:RDF><cc:Work
         rdf:about=""><dc:format>image/svg+xml</dc:format><dc:type
           rdf:resource="http://purl.org/dc/dcmitype/StillImage" /><dc:title></dc:title></cc:Work></rdf:RDF></metadata><defs
     id="defs7" /><sodipodi:namedview
     pagecolor="#ffffff"
     bordercolor="#666666"
     borderopacity="1"
     objecttolerance="10"
     gridtolerance="10"
     guidetolerance="10"
     inkscape:pageopacity="0"
     inkscape:pageshadow="2"
     inkscape:window-width="1376"
     inkscape:window-height="735"
     id="namedview5"
     showgrid="false"
     fit-margin-top="0"
     fit-margin-left="0"
     fit-margin-right="0"
     fit-margin-bottom="0"
     inkscape:zoom="0.472"
     inkscape:cx="218.05"
     inkscape:cy="194.8235"
     inkscape:window-x="0"
     inkscape:window-y="0"
     inkscape:window-maximized="0"
     inkscape:current-layer="Layer_1" /><path
     d="M 218.05,56.332 C 208.964,20.993 162.809,0 127.195,0 56.962,0 0,54.513 0,127.198 c 0,136.28 129.557,172.624 199.88,254.39 0.628,0.906 1.366,1.644 2.182,2.45 8.898,8.818 23.256,8.818 32.154,0 0.825,-0.807 1.368,-1.544 2.006,-2.45 C 306.634,299.643 436.101,264.027 436.101,127.198 436.101,54.513 379.139,0 308.903,0 273.289,0 227.136,20.993 218.05,56.332 Z m 96.765,25.437 c -8.544,-1.543 -14.993,-8.996 -14.993,-17.895 0,-9.991 8.181,-18.447 18.167,-18.447 14.448,0 31.978,10.267 46.699,24.81 14.994,14.896 25.986,34.796 25.986,47.875 0,9.99 -8.18,18.171 -18.172,18.171 -8.906,0 -16.35,-6.45 -17.905,-14.996 -4.543,-18.258 -20.159,-34.975 -39.782,-39.518 z"
     id="path2"
     inkscape:connector-curvature="0"
     style="clip-rule:evenodd;fill:#ffffff;fill-rule:evenodd" /></svg>