<?xml version="1.0" encoding="utf-8"?>
<!-- Generator: Adobe Illustrator 15.0.0, SVG Export Plug-In . SVG Version: 6.00 Build 0)  -->
<!DOCTYPE svg PUBLIC "-//W3C//DTD SVG 1.1//EN" "http://www.w3.org/Graphics/SVG/1.1/DTD/svg11.dtd">
<svg version="1.1" id="Capa_1" xmlns="http://www.w3.org/2000/svg" xmlns:xlink="http://www.w3.org/1999/xlink" x="0px" y="0px"
	 width="144px" height="141.94px" viewBox="54 1.03 144 141.94" enable-background="new 54 1.03 144 141.94" xml:space="preserve">
<g>
	<g id="Layer_5_31_">
		<g>
			<path fill="#FFFFFF" d="M100.142,128.617V81.844c0-1.108-0.736-1.732-1.071-1.942c-0.762-0.478-1.406-0.927-1.885-1.331
				c-1.978-1.664-3.624-3.662-4.354-6.711c-1.293-5.398,1.54-11.011,6.86-12.59c0.081-0.024,0.451-0.126,0.451-0.901V20.493
				c0-4.264,1.927-8.084,4.953-10.643c0.304-0.258,0.775-0.759-0.483-0.309L60.041,22.775c-4.454,1.322-7.015,6.048-5.693,10.502
				l30.777,103.651c1.323,4.454,6.048,7.016,10.502,5.694l7.376-2.191c2.436-0.854,0.525-2.713,0.788-2.426
				C101.526,135.529,100.142,132.232,100.142,128.617z M80.031,34.753c-0.666,2.206-4.587,8.147-5.72,8.483
				c-1.109,0.33-7.689-2.511-9.438-3.983c-0.875-0.737-1.604-1.621-1.928-2.971c-0.572-2.389,0.774-4.903,3.13-5.602
				c2.421-0.719,4.598,1.446,4.903,1.355c0.348-0.103,1.051-3.124,3.368-3.811c2.355-0.699,4.855,0.672,5.679,2.986
				C80.491,32.52,80.362,33.654,80.031,34.753z"/>
			<path fill="#FFFFFF" d="M141.076,6.556c1.514,0,1.081-0.669,0.916-0.984c-1.832-3.504-5.959-5.359-9.884-4.194l-15.79,4.689
				c0,0-1.481,0.489,0.208,0.489C123.002,6.556,141.076,6.556,141.076,6.556z"/>
			<path fill="#FFFFFF" d="M190.064,17.464h-70.618c-4.364,0-7.935,3.571-7.935,7.935v99.583c0,4.364,3.571,7.935,7.935,7.935
				h70.618c4.365,0,7.936-3.57,7.936-8.729V25.399C198,21.829,194.43,17.464,190.064,17.464z M134.245,33.594
				c-1.189,1.809-6.31,6.109-7.419,6.109c-1.087,0-6.253-4.316-7.435-6.109c-0.591-0.898-1.011-1.888-0.941-3.19
				c0.124-2.305,2.008-4.208,4.315-4.208c2.373,0,3.753,2.532,4.052,2.532c0.341,0,1.781-2.532,4.053-2.532
				c2.309,0,4.192,1.903,4.316,4.208C135.257,31.706,134.838,32.692,134.245,33.594z M171.534,76.845
				c-2.687,4.087-14.253,13.803-16.761,13.803c-2.455,0-14.127-9.752-16.796-13.803c-1.337-2.028-2.284-4.267-2.128-7.208
				c0.279-5.206,4.537-9.507,9.751-9.507c5.36,0,8.481,5.72,9.156,5.72c0.77,0,4.024-5.72,9.155-5.72
				c5.215,0,9.472,4.301,9.75,9.507C173.818,72.578,172.874,74.808,171.534,76.845z M191.062,120.185
				c-0.121,2.272-1.98,4.15-4.256,4.15c-2.34,0-3.703-2.497-3.998-2.497c-0.336,0-1.756,2.497-3.996,2.497
				c-2.277,0-4.135-1.878-4.256-4.15c-0.068-1.284,0.344-2.257,0.928-3.146c1.174-1.784,6.223-6.025,7.318-6.025
				c1.07,0,6.166,4.257,7.331,6.025C190.717,117.924,191.131,118.9,191.062,120.185z"/>
		</g>
	</g>
</g>
</svg>
